<?xml version="1.0" encoding="utf-8"?>
<!-- Generator: Adobe Illustrator 21.0.2, SVG Export Plug-In . SVG Version: 6.00 Build 0)  -->
<svg version="1.1" id="Layer_1" xmlns="http://www.w3.org/2000/svg" xmlns:xlink="http://www.w3.org/1999/xlink" x="0px" y="0px"
	 viewBox="0 0 100 100" style="enable-background:new 0 0 100 100;" xml:space="preserve">
<g>
	<path d="M90.9,47.9L56.6,13.7c-1.6-1.6-3.7-2.4-5.9-2.4l-5.1,0c0.2,0.2,0.5,0.4,0.7,0.6l4.6,4.6c0.8,0,1.5,0.4,2,0.9l34.3,34.3
		c3.5,3.5,3.5,9.1,0,12.6l-17,17c-0.9,0.9-2,1.6-3.1,2l-3.5,3.5c-0.8,0.8-1.6,1.4-2.4,2c0.9,0.2,1.8,0.3,2.8,0.3
		c3.6,0,7.2-1.4,10-4.1l17-17C96.4,62.4,96.4,53.4,90.9,47.9z"/>
	<path d="M24.2,22.7c-0.6,0-1.2,0.1-1.8,0.2c-2.4,0.6-4.3,2.3-5.2,4.6c-0.3,0.8-0.5,1.7-0.5,2.7c0,1,0.2,1.9,0.5,2.7
		c0.9,2.2,2.8,4,5.2,4.5c0.6,0.1,1.1,0.2,1.7,0.2c4.1,0,7.5-3.4,7.5-7.5C31.7,26.1,28.3,22.7,24.2,22.7z M24.2,34.3
		c-0.6,0-1.2-0.1-1.8-0.4c-1.3-0.7-2.3-2-2.3-3.6c0-1.6,0.9-2.9,2.2-3.6c0.5-0.3,1.2-0.4,1.8-0.4c2.2,0,4,1.8,4,4
		C28.2,32.4,26.4,34.3,24.2,34.3z"/>
	<path d="M62.9,83.7l15.8-15.8c5.5-5.5,5.5-14.5,0-19.9L47.2,16.4l-2.7-2.7c-1.6-1.6-3.7-2.4-5.9-2.4L21,11.1L9.5,11.1
		c-1.2,0-2.4,0.5-3.2,1.3c-0.9,0.9-1.3,2-1.3,3.2l0.1,29.1c0,2.2,0.9,4.3,2.4,5.9l34.3,34.3c2.8,2.8,6.4,4.1,10,4.1
		c2.1,0,4.2-0.5,6.1-1.4c1.4-0.7,2.7-1.6,3.9-2.8L62.9,83.7z M52.9,83.7c-2.6,0.3-5.3-0.6-7.3-2.5L11.3,46.9
		c-0.6-0.6-0.9-1.4-0.9-2.2l-0.1-28.4l6.9,0l5.2,0l16.3,0.1c0.8,0,1.6,0.3,2.2,0.9l34.3,34.3c3.5,3.5,3.5,9.1,0,12.6l-17,17
		c-0.1,0.1-0.2,0.2-0.2,0.2C56.5,82.7,54.7,83.5,52.9,83.7z"/>
</g>
</svg>
